<?xml version="1.0" standalone="no"?>
<!DOCTYPE svg PUBLIC "-//W3C//DTD SVG 20010904//EN"
 "http://www.w3.org/TR/2001/REC-SVG-20010904/DTD/svg10.dtd">
<svg version="1.0" xmlns="http://www.w3.org/2000/svg"
 width="458.000000pt" height="458.000000pt" viewBox="0 0 458.000000 458.000000"
 preserveAspectRatio="xMidYMid meet">
<metadata>
Created by potrace 1.14, written by Peter Selinger 2001-2017
</metadata>
<g transform="translate(0.000000,458.000000) scale(0.100000,-0.100000)"
fill="#000000" stroke="none">
<path d="M2300 4565 c-7 -8 -19 -15 -27 -15 -8 0 -30 -15 -48 -32 -40 -40 -73
-64 -145 -106 -30 -18 -73 -45 -95 -61 -55 -41 -81 -44 -77 -10 2 14 -4 31
-13 39 -13 11 -28 7 -93 -23 -42 -19 -88 -38 -102 -42 -14 -4 -69 -29 -122
-56 -94 -46 -97 -47 -114 -28 -21 24 -29 24 -53 0 -22 -22 -119 -77 -170 -96
-219 -82 -406 -223 -528 -398 -24 -33 -43 -64 -43 -68 0 -4 -14 -31 -32 -58
-30 -49 -32 -50 -50 -34 -13 12 -22 13 -29 6 -21 -21 -47 -185 -45 -290 0 -55
-2 -99 -5 -97 -10 6 -16 -65 -12 -151 2 -44 6 -132 9 -195 4 -95 10 -156 19
-190 0 -3 4 -32 9 -65 8 -67 13 -100 21 -132 5 -22 9 -39 20 -93 9 -40 14 -72
20 -112 8 -50 39 -169 64 -240 l20 -58 -20 0 c-29 0 -75 -50 -88 -96 -32 -115
3 -213 99 -274 39 -25 66 -33 141 -44 21 -2 64 -31 101 -66 17 -16 73 -50 127
-75 137 -66 147 -70 241 -95 102 -27 212 -61 208 -65 -2 -1 -28 -5 -58 -8 -73
-7 -106 -23 -124 -62 -9 -18 -38 -54 -65 -80 -28 -27 -55 -62 -62 -79 -6 -17
-19 -52 -30 -77 -10 -25 -36 -111 -58 -191 -45 -162 -74 -243 -96 -265 -26
-25 -35 -51 -39 -106 -2 -30 -9 -64 -15 -75 -6 -11 -11 -28 -11 -38 0 -37 -83
-253 -99 -257 -9 -3 493 -5 1116 -6 l1132 -1 -15 44 c-15 44 -17 45 -62 48
l-46 3 -4 45 c-3 39 -10 51 -50 89 -53 49 -92 71 -136 78 -17 3 -39 9 -49 15
-20 10 -20 11 68 118 25 30 58 73 75 95 16 22 50 65 75 95 109 134 296 373
324 413 17 25 34 47 38 49 5 1 20 17 34 35 l26 31 49 -34 c27 -18 54 -37 59
-42 88 -73 135 -103 154 -97 25 8 61 56 61 83 0 10 11 36 25 56 14 20 25 40
25 43 0 11 60 63 72 63 7 0 26 19 42 42 22 31 27 45 19 57 -10 16 -62 59 -163
136 -29 22 -57 45 -64 50 -6 6 -27 21 -46 34 -19 14 -61 46 -92 73 -31 26 -60
48 -65 48 -4 0 -39 27 -77 60 -38 33 -73 60 -78 60 -17 0 -7 19 42 80 28 34
50 72 50 84 0 13 14 38 31 57 17 19 49 61 72 94 22 33 44 62 48 65 3 3 37 46
74 95 37 50 71 92 75 95 4 3 19 23 33 45 14 22 36 51 49 65 12 14 63 78 112
143 49 64 95 117 102 117 20 0 134 155 134 183 0 18 -17 37 -62 73 -154 121
-157 121 -233 14 -31 -44 -59 -88 -62 -98 -10 -26 -106 -162 -115 -162 -4 0
-8 -7 -8 -15 0 -8 -4 -15 -9 -15 -5 0 -20 -17 -32 -37 -13 -21 -44 -62 -71
-92 -26 -30 -45 -57 -43 -61 3 -4 -3 -14 -11 -21 -9 -8 -78 -94 -152 -191 -74
-98 -141 -178 -148 -178 -7 0 -31 -24 -53 -54 -23 -30 -50 -61 -62 -70 -20
-13 -24 -13 -45 2 -28 20 -29 40 -9 107 15 48 20 71 29 145 3 19 10 50 15 69
6 19 13 53 17 75 3 23 7 50 9 61 2 11 8 45 14 75 5 30 12 73 15 95 3 22 8 54
11 71 14 76 19 357 10 548 -5 109 -11 163 -25 216 -6 19 -10 47 -10 61 0 36
-25 57 -51 41 -22 -14 -29 -15 -29 -3 0 14 -91 163 -129 211 -20 25 -70 79
-112 120 -55 54 -78 85 -84 110 -4 19 -12 44 -19 55 -7 11 -20 41 -30 68 -10
26 -22 45 -27 42 -5 -4 -6 0 -3 8 3 8 1 18 -5 22 -6 3 -11 17 -11 30 0 13 -4
26 -9 29 -4 3 -11 26 -14 51 -5 36 -27 96 -42 113 -1 2 -14 0 -29 -4 -18 -4
-29 -16 -35 -38 l-8 -31 -7 40 c-19 112 -21 120 -39 123 -10 2 -27 -4 -38 -14
-18 -17 -19 -16 -19 17 0 47 -13 65 -30 44z"/>
</g>
</svg>
